HIERARCHY
ROOT Hips
{
  OFFSET 32.3073 99.364 17.4096
  CHANNELS 6 Xposition Yposition Zposition Zrotation Xrotation Yrotation
  JOINT ToSpine
  {
    OFFSET -0.0105055 1.38907 -7.13956
    CHANNELS 3 Zrotation Xrotation Yrotation
    JOINT Spine
    {
      OFFSET 0.0105055 10 1
      CHANNELS 3 Zrotation Xrotation Yrotation
      JOINT Spine1
      {
        OFFSET 0 12 1.60637
        CHANNELS 3 Zrotation Xrotation Yrotation
        JOINT Neck
        {
          OFFSET 0 27 2.26658
          CHANNELS 3 Zrotation Xrotation Yrotation
          JOINT Head
          {
            OFFSET 0 9 2.12705
            CHANNELS 3 Zrotation Xrotation Yrotation
            End Site
            {
              OFFSET 0 11 2
            }
          }
        }
        JOINT LeftShoulder
        {
          OFFSET 8 19.6109 2.86452
          CHANNELS 3 Zrotation Xrotation Yrotation
          JOINT LeftArm
          {
            OFFSET 12 1 0.681055
            CHANNELS 3 Zrotation Xrotation Yrotation
            JOINT LeftForeArm
            {
              OFFSET 19 0 -1.52608
              CHANNELS 3 Zrotation Xrotation Yrotation
              JOINT LeftHand
              {
                OFFSET 23 0 0
                CHANNELS 3 Zrotation Xrotation Yrotation
                End Site
                {
                  OFFSET 10 0 0
                }
              }
            }
          }
        }
        JOINT RightShoulder
        {
          OFFSET -8 19.6109 2.86452
          CHANNELS 3 Zrotation Xrotation Yrotation
          JOINT RightArm
          {
            OFFSET -12 1 0.681055
            CHANNELS 3 Zrotation Xrotation Yrotation
            JOINT RightForeArm
            {
              OFFSET -19 0 -1.52608
              CHANNELS 3 Zrotation Xrotation Yrotation
              JOINT RightHand
              {
                OFFSET -23 0 0
                CHANNELS 3 Zrotation Xrotation Yrotation
                End Site
                {
                  OFFSET -10 0 0
                }
              }
            }
          }
        }
      }
    }
  }
  JOINT LeftUpLeg
  {
    OFFSET 9 -7.17245 0
    CHANNELS 3 Zrotation Xrotation Yrotation
    JOINT LeftLeg
    {
      OFFSET 0 -44.1113 0
      CHANNELS 3 Zrotation Xrotation Yrotation
      JOINT LeftFoot
      {
        OFFSET 0 -36.1829 0
        CHANNELS 3 Zrotation Xrotation Yrotation
        JOINT LeftToeBase
        {
          OFFSET 0 -4.84184 13
          CHANNELS 3 Zrotation Xrotation Yrotation
          End Site
          {
            OFFSET 0 1 6
          }
        }
      }
    }
  }
  JOINT RightUpLeg
  {
    OFFSET -9 -7.17245 0
    CHANNELS 3 Zrotation Xrotation Yrotation
    JOINT RightLeg
    {
      OFFSET 0 -44.0551 0
      CHANNELS 3 Zrotation Xrotation Yrotation
      JOINT RightFoot
      {
        OFFSET 0 -36.1469 0
        CHANNELS 3 Zrotation Xrotation Yrotation
        JOINT RightToeBase
        {
          OFFSET 0 -4.92256 13
          CHANNELS 3 Zrotation Xrotation Yrotation
          End Site
          {
            OFFSET 0 1 6
          }
        }
      }
    }
  }
}
MOTION
Frames:	10
Frame Time:	0.0333333
32.3098 99.3748 17.4068 1.02727 -0.926985 -3.69289 0 0 0 1.90726 0.597894 0.894638 -4.99982 0.202627 1.66152 7.01589 -3.07236 -1.94854 -5.26951 4.27565 1.35823 -29.6059 3.09501 -5.1583 -46.0469 25.722 -7.14181 -5.13091 -13.038 -5.41835 -8.60738 0.147094 -1.9605 24.8229 4.68902 11.5279 55.9016 15.3755 2.0979 2.94591 -1.24489 12.1787 5.01276 0.213453 4.86957 2.37446 -0.441412 7.6857 -1.68083 11.9882 -6.00252 1.85077 -12.1824 0.197513 0.411142 3.7745 -2.42256 -4.0615 -1.99994 -8.10522 0.112241 12.7542 2.62245 -5.58947 -7.43815 -0.363586 2.34601 -8.56776 -1.22692 
32.2531 99.4127 17.3153 0.830518 -0.570623 -3.81731 0 0 0 1.93434 0.221363 1.00899 -4.66174 0.294903 1.709 7.17504 -2.50622 -1.67445 -5.46057 3.30427 1.70541 -29.7169 3.04989 -5.00774 -45.8672 26.0736 -7.60262 -5.20981 -13.3142 -5.64799 -7.92846 0.156152 -2.24718 24.6662 4.66873 11.5364 55.8681 15.4315 2.15691 2.92593 -1.24076 12.235 4.04292 0.163907 4.64404 2.62686 -0.885163 7.77683 -1.62653 12.0321 -5.80036 1.57218 -12.2148 0.168341 0.521691 3.94165 -2.85612 -3.65737 -2.29146 -7.66767 -0.0797827 12.4005 2.47816 -5.17169 -7.2229 -0.327046 2.30313 -8.32342 -1.62432 
32.1379 99.4389 17.0903 0.383996 0.458594 -3.77568 0 0 0 1.89044 -0.903849 0.924845 -3.77064 0.661662 1.4514 6.60816 -2.7293 -1.25765 -5.19836 3.29252 1.87575 -30.3209 2.93461 -4.5515 -45.1988 25.8791 -8.36288 -5.10377 -12.9188 -5.70955 -8.4782 0.193819 -2.61586 24.0422 4.64522 11.7501 55.9252 15.5164 2.53952 2.85926 -1.09865 12.2019 2.20805 0.0888794 4.59572 3.50155 -2.39127 8.28364 -1.97561 12.7015 -6.40431 1.96062 -12.1349 0.207986 0.351926 3.56761 -2.16833 -2.93553 -3.52782 -6.98282 -0.202071 12.4502 2.21191 -4.66972 -6.79924 -0.277295 2.27422 -8.06582 -2.28045 
32.3308 99.4645 17.1185 0.633807 -1.14005 -3.59005 0 0 0 1.67756 0.758359 0.89357 -3.59525 0.683076 1.41901 6.10704 -2.59423 -1.29553 -4.79388 3.09606 1.60052 -30.7915 2.99958 -4.62644 -44.7572 25.1452 -8.93132 -4.75525 -11.5667 -5.71696 -8.73357 0.227297 -2.97397 23.6738 4.5356 11.5678 55.9807 15.6591 2.825 2.88184 -0.918319 12.1032 1.99561 0.0809965 4.81589 2.79147 -0.282433 7.9521 -1.77691 11.7755 -6.3464 2.37968 -11.7297 0.244614 0.286446 2.87019 -1.79302 -3.66782 -1.72271 -7.97125 0.0970973 12.3068 2.93889 -5.06181 -6.53816 -0.289325 2.45288 -8.86713 -1.84355 
32.2364 99.4654 16.9565 0.440935 -0.702812 -3.73451 0 0 0 1.77592 0.495669 0.970923 -3.46866 0.498725 1.45114 5.82976 -2.2156 -1.25515 -4.42335 2.90114 1.48221 -30.9989 3.00379 -4.59276 -44.4203 25.4901 -9.00359 -4.70275 -11.7945 -6.79855 -9.04495 0.258301 -3.26606 23.5158 4.58245 11.7971 56.0859 15.8742 3.03163 3.73129 -3.48486 11.6476 0.713005 0.0351381 5.62037 3.18632 -1.08655 8.17593 -1.8098 12.3748 -6.4189 1.92188 -12.0615 0.202885 0.312754 3.39967 -1.98941 -3.2598 -2.14392 -7.53287 -0.0149509 11.8476 2.44494 -5.21861 -6.07758 -0.277264 2.50149 -9.16271 -1.25174 
32.3036 99.4933 16.8362 0.460579 -0.695393 -3.45541 0 0 0 1.94359 0.636214 0.877014 -3.44717 0.429192 1.35662 5.33685 -2.25595 -1.28468 -4.10533 3.148 1.24561 -31.3718 3.01957 -4.55479 -43.8457 25.9107 -9.48964 -4.67974 -12.0093 -7.579 -8.89044 0.241373 -3.10384 23.1193 4.48896 11.6783 56.0606 15.7745 3.24212 3.14427 -1.54117 11.8328 1.65897 0.0695847 4.77865 3.05841 -1.22942 7.94931 -1.64065 12.3684 -6.46563 1.46743 -12.1764 0.156276 0.264958 4.12604 -1.94082 -3.40269 -2.16817 -7.75757 0.105497 11.7382 2.09393 -5.54023 -5.91864 -0.286584 2.44751 -9.13854 -0.186365 
32.2638 99.4746 16.7596 0.386812 -0.824518 -3.58383 0 0 0 2.08729 0.790851 0.97828 -3.50283 0.476532 1.46274 5.33514 -2.21457 -1.28314 -4.40833 3.20451 1.32562 -31.4863 3.03207 -4.56356 -43.6904 25.6102 -9.95048 -4.586 -12.0351 -7.9473 -8.65611 0.231487 -3.05856 23.1903 4.4722 11.588 55.6886 15.8484 3.19078 2.70066 -0.416341 12.4035 2.10436 0.0828905 4.50049 3.22236 -1.14634 8.1873 -1.81892 12.4568 -6.46293 2.0903 -11.961 0.219046 0.337426 3.35577 -2.0751 -3.29983 -2.04271 -7.69511 0.178584 11.6343 2.47942 -5.52702 -5.68778 -0.274698 2.60007 -9.57597 -1.06182 
32.2496 99.4986 16.7319 0.360088 -0.83136 -3.52832 0 0 0 2.06687 0.571811 0.935962 -3.3662 0.729297 1.39921 5.02554 -2.13863 -1.22571 -3.79564 3.38888 1.1519 -31.5443 3.04492 -4.58529 -43.5398 25.7261 -10.1951 -4.57033 -12.3356 -8.65722 -9.04627 0.235467 -2.97587 23.0853 4.50922 11.7624 55.5649 15.6597 3.21275 2.43567 0.308212 12.5801 2.8937 0.116232 4.59941 3.24485 -1.05048 8.1458 -1.75727 12.193 -6.52531 1.79245 -11.972 0.18785 0.290271 3.93024 -2.00059 -3.23366 -1.97835 -7.65683 0.0545433 11.5056 2.25511 -4.98607 -5.88662 -0.256616 2.37942 -8.7757 -0.805259 
32.2775 99.4987 16.5747 0.63311 -0.571475 -3.77566 0 0 0 1.91258 0.554318 0.995888 -3.41888 0.433234 1.49059 5.05007 -1.87313 -1.17892 -3.77541 3.30182 1.2068 -31.5548 3.06406 -4.63363 -43.5205 25.8654 -10.3197 -4.6751 -12.7027 -9.07819 -8.77126 0.211674 -2.75636 23.1902 4.49962 11.6793 55.3829 15.6456 3.28524 2.24814 0.801981 12.6725 3.15171 0.126607 4.60392 2.85715 -1.18514 7.85453 -1.7481 11.604 -6.00697 2.15325 -11.3804 0.214479 0.325054 3.11885 -1.98649 -3.57017 -2.67586 -7.8041 0.0318479 12.0422 2.54792 -5.09362 -6.01552 -0.267719 2.34327 -8.7009 -0.464225 
32.2697 99.4897 16.5244 0.760493 -0.415188 -3.73345 0 0 0 1.82706 0.269051 0.970177 -3.42446 0.493654 1.46329 4.9331 -1.50278 -1.19301 -3.71193 3.017 1.15058 -31.6698 3.09355 -4.68691 -43.5573 25.8519 -10.5155 -4.8077 -13.4221 -9.21066 -8.3914 0.186058 -2.53599 23.1622 4.46444 11.5752 55.3899 15.7528 3.34686 2.36519 0.334305 12.6853 3.42743 0.13627 4.55032 2.73161 -1.3902 7.80944 -1.78559 11.5644 -5.96924 2.28191 -11.1539 0.222386 0.334414 2.74612 -1.95441 -3.72312 -2.86815 -7.89027 0.102498 12.0043 2.70091 -5.11563 -5.67609 -0.253758 2.5414 -9.41713 -0.644135 
